<?xml version="1.0" encoding="utf-8" ?><svg xmlns="http://www.w3.org/2000/svg" xmlns:xlink="http://www.w3.org/1999/xlink" width="1024" height="1024" viewBox="0 0 1024 1024"><path fill="white" transform="scale(0.568889 0.568889)" d="M793.716 30.3307C815.478 31.2446 839.068 30.731 860.999 30.7315L967.676 30.7363L1268.32 30.7731L1357.05 30.7561C1402.64 30.6909 1432.37 29.1268 1478.01 39.9307C1544.97 56.1507 1606.39 89.937 1655.95 137.806C1723.02 204.931 1763.64 293.992 1770.36 388.648C1771.16 399.223 1770.83 412.867 1770.8 423.749L1770.44 488.674L1770.95 647.947L1771.02 1160.34L1771.01 1314.74C1770.94 1368.82 1773.64 1417.12 1761.39 1470.96C1725.44 1628.88 1594.03 1747.24 1433.48 1767.31C1414.5 1769.68 1394.3 1768.88 1375.19 1769.3C1334.72 1770.2 1294.28 1769.56 1253.8 1769.8L978.898 1769.94C973.877 1769.25 945.822 1769.95 939.199 1769.96L846.931 1769.73L488.857 1769.65C423.673 1769.75 369.071 1772.89 305.346 1753.88C148.468 1707.08 41.8939 1567.55 30.0488 1405.59C28.2175 1380.55 29.1385 1352.82 29.0793 1327.57L28.9911 1193.13L29.5398 771.892L29.4556 528.842L29.1881 456.826C28.9267 421.595 28.3063 390.24 34.361 355.507C47.4457 280.448 74.2222 217.994 124.636 160.311C183.713 92.7174 273.838 43.4426 363.347 33.3067C402.283 28.8976 452.027 30.8306 492.185 30.8362L693.194 30.7653L755.917 30.8021C767.125 30.812 781.716 31.2644 792.599 30.4257L793.716 30.3307ZM138.577 1023.25C142.092 1010.41 146.973 1001.62 152.783 989.737C156.251 982.645 158.507 974.215 161.946 967.02C173.734 943.389 183.311 918.73 194.194 894.783C220.137 836.876 247.699 779.707 276.849 723.346C293.367 691.175 313.813 653.595 332.326 622.02C338.375 611.704 330.626 578.051 332.909 564.517C335.122 533.362 339.477 508.095 353.105 479.986C368.597 448.557 393.073 422.438 423.431 404.941C462.14 383.017 504.598 376.287 548.343 386.601C588.814 396.144 613.392 418.247 644.304 443.807C666.967 389.948 725.695 349.917 784.007 356.94C868.908 367.165 906.416 449.288 923.032 523.401C923.583 525.858 925.974 527.744 927.976 529.069C957.833 544.852 986.474 562.202 1012.66 583.934C1034.46 602.126 1054.31 622.523 1071.91 644.8C1086.92 663.473 1097.07 679.144 1115.02 696.136C1144.91 725.161 1180.62 746.882 1212.08 774.003C1235.19 793.915 1255.24 812.998 1259.95 844.947C1268.02 904.477 1234.16 955.429 1196.11 997.011C1129.48 1069.81 1044.78 1089.01 951.446 1103.46C927.585 1107.15 872.705 1114.08 851.836 1121.07C846.088 1121.28 808.318 1130.14 803.217 1132.4C800.807 1138.1 807.302 1160.77 809.892 1166.91C818.506 1187.33 850.447 1213.61 870.029 1221.46C907.227 1236.35 940.772 1240.58 980.232 1240.62C1007.63 1240.65 1036.97 1243.83 1064.63 1243.76C1070.63 1244.02 1077.31 1245.37 1083.31 1245.79C1278.44 1259.56 1468.37 1381.1 1545.15 1563.98C1548.14 1571.09 1555.69 1594.03 1560.35 1598.96C1562.24 1599.51 1562.14 1599.93 1563.58 1598.92C1569.23 1594.96 1575.98 1588.07 1580.96 1583.27C1618.41 1547.2 1645.17 1501.5 1658.32 1451.19C1669.12 1410 1666.93 1369.12 1666.89 1327L1666.56 1200.15L1665.92 683.002L1666.67 482.814C1666.61 455.002 1667.91 424.362 1665.82 396.75C1661.66 341.682 1641.55 286.55 1607.27 242.509C1569.17 194.177 1516.16 159.784 1456.5 144.671C1439.63 140.513 1392.19 142.028 1372.95 142.047L1235.96 142.09L649.143 142.086L437.343 142.105L385.888 142.026C380.125 141.994 361.359 141.643 356.449 142.572C302.121 154.677 264.961 173.648 224.595 212.717C190.825 245.401 163.362 284.622 149.801 330.091C148.151 335.626 143.537 341.504 143.107 347.718C136.459 372.289 137.934 394.098 137.95 419.471L138.012 506.198L138.028 752.305L138.02 934.28L137.985 989.898C137.983 999.434 137.589 1014.22 138.577 1023.25ZM264.219 1617.96C265.709 1615.07 266.8 1612.65 268.807 1610.06C269.226 1501 306.681 1381.9 366.955 1291.31C381.99 1268.71 396.061 1253.95 411.16 1233.5C468.76 1170.94 527.368 1124.35 605.565 1089.79C616.226 1085.08 627.245 1079.22 638.128 1075.01C680.522 1058.61 723.81 1045.83 767.994 1035.25C780.78 1032.19 801.108 1026.22 813.237 1024.25C836.868 1020.41 864.033 1015.36 887.639 1012.57C928.814 1007.7 968.627 1004.27 1009.45 995.878C1028.22 992.019 1046.78 988.764 1064.97 981.664C1083.71 974.35 1099.3 965.364 1114.92 952.73C1123.48 945.808 1134.59 937.197 1140.89 927.973C1121.8 917.247 1102.89 904.297 1096.77 881.902C1085.87 841.988 1120.59 835.933 1150.72 836.675C1093.17 792.73 1047.45 762.978 1004.61 703.318C946.283 622.072 834.969 572.668 738.069 558.926C733.041 558.185 722.138 555.907 717.808 558.296C717.041 574.477 723.911 582.168 711.621 599.138C704.887 608.562 694.551 614.777 683.07 616.307C644.351 621.805 637.218 592.362 623.689 565.495C604.882 528.145 571.729 486.032 529.776 474.828C519.253 472.096 503.24 472.877 492.288 473.117C479.189 474.756 464.838 482.93 454.853 491.386C427.063 514.921 417.789 557.432 422.412 592.272C427.568 629.198 440.253 664.671 459.681 696.493C462.347 700.957 466.498 708.147 469.707 712.103C504.677 755.209 454.991 813.059 408.381 777.31C400.31 771.119 387.269 747.673 382.334 744.737C372.31 746.952 241.222 1041.95 229.152 1071.2C222.087 1088.32 201.742 1136.51 193.481 1155.63L158.993 1234.52C155.157 1243.12 139.64 1274.16 139.1 1282.04C136.211 1324.97 139.08 1368.72 137.979 1411.87C137.734 1421.49 141.986 1439.34 144.365 1449.12C158.611 1507.68 193.219 1559.65 238.766 1598.65C247.038 1605.73 256.368 1611.35 264.219 1617.96ZM768.688 445.993C750.785 447.786 742.361 455.344 732.25 469.248C750.714 472.784 770.426 473.944 788.653 478.813C799.378 480.42 807.907 482.971 818.955 484.208C806.264 463.599 796.263 445.262 768.688 445.993ZM829.995 1315.46C829.634 1328.64 836.639 1340.77 841.961 1352.57C924.922 1536.44 1107.39 1654.19 1307.48 1664.63C1326.38 1665.61 1345.95 1664.38 1364.87 1664.1C1397.09 1664.57 1427.71 1661.8 1458.91 1653.45C1462.74 1652.08 1467.04 1651.06 1469.68 1648.23C1469.21 1642.2 1461.22 1623.61 1458.74 1617.56C1433.02 1556.21 1398.17 1509.34 1349.33 1464.92C1257.12 1381.07 1142.71 1347.31 1019.89 1344.08C998.23 1343.51 978.278 1344.56 956.64 1342.41C924.53 1339.23 892.967 1336.83 862.102 1326.39C853.377 1323.62 838.085 1316.99 829.995 1315.46ZM980.351 1664.51L979.444 1663.75C963.02 1650.27 944.059 1638.8 927.247 1625.7C894.344 1600.07 866.371 1572.03 839.651 1540.13C762.415 1448.25 714.383 1335.39 701.715 1216.02C700.198 1201.23 698.986 1177.66 702.2 1163.38C698.964 1162.81 698.62 1162.89 695.46 1163.01C676.557 1168 657.512 1178.34 639.929 1186.29C485.868 1255.98 391.527 1409.93 372.386 1574.63C369.116 1602.77 369.976 1631.44 370.021 1659.87C381.586 1660.44 394.287 1663.69 403.599 1663.79C432.294 1664.12 461.386 1663.93 490.095 1663.92L657.544 1663.91L868.801 1663.93C894.628 1664 920.506 1665.64 946.391 1664.6C957.681 1664.15 969.08 1665.05 980.351 1664.51Z"/><path fill="white" transform="scale(0.568889 0.568889)" d="M1160.8 240.998C1177.59 240.993 1182.94 242.563 1198.12 243.965C1225.35 246.479 1243.15 248.805 1269.61 256.529C1311.03 268.622 1343.34 283.785 1379.15 308.237C1396.15 319.846 1413.12 331.933 1428.83 345.414C1436.66 352.135 1446.57 363.534 1453.57 371.346C1459.84 378.335 1468.74 387.502 1474.35 394.722C1490.29 415.222 1505.87 440.007 1518.54 462.72C1538.77 498.978 1551.76 544.472 1559.13 585.271C1560.34 591.984 1560.4 600.873 1561.53 608.018C1563.29 619.194 1566.5 639.84 1563.41 650.659C1560.92 652.722 1560.81 652.001 1556.68 652.161C1535.07 652.149 1492.45 652.641 1469.04 651.651C1467.71 651.496 1467.05 647.722 1467.03 646.861C1463.85 502.681 1361.94 372.219 1218.58 344.946C1192.86 340.052 1181.12 338.32 1154.97 340.199C1155.8 315.952 1156.44 292.124 1155.76 267.844C1155.56 260.578 1154.96 251.568 1155.79 244.432C1157.71 241.697 1157.22 242.523 1160.8 240.998Z"/><path fill="white" transform="scale(0.568889 0.568889)" d="M1154.77 426.162C1269.26 420.967 1375.94 523.987 1379.32 638.141C1379.44 642.376 1379.62 647.699 1378.52 651.688L1376.59 652.129L1283.19 652.09C1282.93 621.459 1268.11 581.342 1244.89 560.26C1228.19 545.091 1204.8 532.285 1182.94 526.751C1174.57 524.634 1165.5 524.186 1156.87 522.282C1153.39 518.199 1156.95 439.119 1154.77 426.162Z"/><path fill="white" transform="scale(0.568889 0.568889)" d="M507.439 515.146C553.575 512.959 600.315 595.105 608.336 634.243C609.496 639.902 567.953 661.465 561.929 667.457C557.532 671.831 546.903 681.76 542.008 685.626C537.242 690.097 522.246 706.707 517.682 707.541C506.57 698.517 481.233 651.173 475.336 636.348C471.491 628.103 469.949 619.34 467.344 610.766C458.096 580.33 460.285 525.654 500.007 516.865L507.439 515.146Z"/><path fill="white" transform="scale(0.568889 0.568889)" d="M855.809 709.426C889.225 703.113 929.076 750.113 938.377 778.297C942.733 791.495 897.646 801.851 888.647 802.967C886.387 803.037 885.749 803.007 883.525 803.645C868.885 808.037 854.899 807.585 840.791 801.22C820.971 792.392 796.736 763.598 809.021 741.337C815.81 729.035 827.795 719.555 840.703 714.282C845.568 712.295 850.77 711.082 855.809 709.426Z"/></svg>