<?xml version="1.0" encoding="UTF-8"?>
<!-- Generator: visioncortex VTracer -->
<svg id="svg" version="1.1" xmlns="http://www.w3.org/2000/svg" style="display: block; background: rgb(255, 255, 255);" viewBox="0 0 408 420"><path d="M0 0 C11.58881544 0 19.32308763 2.37539402 28 10 C28.60585938 10.50144531 29.21171875 11.00289062 29.8359375 11.51953125 C37.04549943 17.98924731 42.38119147 28.23032588 43 38 C42.67 39.65 42.34 41.3 42 43 C36.39 43 30.78 43 25 43 C24.13375 40.215625 24.13375 40.215625 23.25 37.375 C20.56511714 29.54102671 18.5654727 25.59051518 11.0625 21.6875 C7.20183321 19.82793736 4.27096133 18.85419227 0 18 C0 12.06 0 6.12 0 0 Z " transform="translate(253,111)" style="fill: #000000;"/><path d="M0 0 C22.26463895 0.6422492 41.75574316 8.47092043 57.54296875 24.59765625 C70.52865441 39.77369853 78.35320834 57.86712488 78 78 C74.00204108 78.95619733 70.29196078 79.1039592 66.1875 79.0625 C65.02605469 79.05347656 63.86460937 79.04445313 62.66796875 79.03515625 C61.78753906 79.02355469 60.90710938 79.01195312 60 79 C58.63551495 76.27102991 58.58750065 73.72163081 58.25 70.6875 C55.97573377 54.46882769 48.40912762 41.59861556 36 31 C32.7953039 28.70142404 29.51327997 26.78669137 26 25 C25.24332031 24.60941406 24.48664063 24.21882813 23.70703125 23.81640625 C16.08584569 20.33134149 8.26147455 19.84014995 0 19 C0 12.73 0 6.46 0 0 Z " transform="translate(253,75)" style="fill: #000000;"/><path d="M0 0 C2.02696608 -0.00571362 4.05392895 -0.01268168 6.08088684 -0.02079773 C11.54787975 -0.03863374 17.01471132 -0.03757895 22.4817245 -0.03185534 C27.06148465 -0.02874989 31.64121441 -0.0348709 36.22097021 -0.04089409 C47.03210517 -0.05490606 57.84316105 -0.05340554 68.65429688 -0.04199219 C79.77427838 -0.03051157 90.89401867 -0.04459345 102.01396841 -0.07138866 C111.59404085 -0.09360133 121.17403789 -0.10017059 130.75413424 -0.09431225 C136.46152915 -0.09095512 142.16876947 -0.09327482 147.8761425 -0.11056328 C153.24519247 -0.12611954 158.61388713 -0.12198113 163.98292351 -0.10325813 C165.94234147 -0.09959633 167.90178628 -0.10260956 169.86117935 -0.11314392 C193.24043643 -0.22915077 212.61507227 5.70078358 229.55493164 22.40405273 C241.68668617 35.02107745 248.30942716 51.86890331 249.14868164 69.24780273 C249.20752029 70.40527008 249.20752029 70.40527008 249.26754761 71.58612061 C249.78193042 82.93530741 249.70531526 94.29604687 249.67993164 105.65405273 C249.67771606 106.97370026 249.67550049 108.29334778 249.67321777 109.65298462 C249.6573491 118.47537665 249.62537622 127.29767167 249.58938599 136.12000179 C249.56235373 142.94077069 249.54316179 149.76153647 249.52658272 156.58233833 C249.49238783 170.60549264 249.44158977 184.62845536 249.36781502 198.65146065 C249.33038898 205.82774377 249.29927755 213.00392913 249.28448486 220.18029785 C249.2701858 227.05448314 249.23496292 233.92830968 249.1867485 240.80233955 C249.17197603 243.36603372 249.16388673 245.92977653 249.16301346 248.49351311 C249.14629058 273.55181317 245.13955231 294.45069262 227.06420898 312.9699707 C209.9802877 329.20273576 189.74433242 332.86529913 167.24511719 332.80810547 C165.20859403 332.81381659 163.17207406 332.8207837 161.13555908 332.8289032 C155.6333253 332.84676921 150.13125158 332.84567839 144.62899756 332.83996081 C140.0219992 332.83685897 135.41503114 332.84297257 130.8080371 332.84899956 C119.93173191 332.86302212 109.05550529 332.86150284 98.17919922 332.85009766 C86.9899594 332.83862299 75.80095947 332.85268648 64.61175126 332.87949413 C54.97651799 332.90170727 45.34135971 332.90827575 35.70610267 332.90241772 C29.96402572 332.89905985 24.22210244 332.90138493 18.48004723 332.91866875 C13.07655196 332.93422511 7.67340974 332.93008646 2.26992798 332.9113636 C0.29761125 332.90770146 -1.67473215 332.91071605 -3.64702415 332.92124939 C-18.18362966 332.99290016 -31.47955412 331.64873576 -44.63256836 324.84155273 C-45.2905542 324.50639648 -45.94854004 324.17124023 -46.62646484 323.82592773 C-53.59444092 320.08219274 -58.98901052 315.06125557 -64.44506836 309.40405273 C-65.10893555 308.77112305 -65.77280273 308.13819336 -66.45678711 307.48608398 C-79.41171397 294.29825956 -84.6067769 273.13081479 -84.58551025 255.26025391 C-84.58848138 254.46856371 -84.5914525 253.67687351 -84.59451365 252.8611927 C-84.60314639 250.22312473 -84.6047043 247.58510243 -84.60620117 244.94702148 C-84.6108333 243.04916793 -84.61585849 241.1513153 -84.62124634 239.25346375 C-84.63433685 234.10634138 -84.64080909 228.95923204 -84.645257 223.81209564 C-84.64819396 220.59089484 -84.6523 217.36969756 -84.65676117 214.14849854 C-84.6704291 204.05443209 -84.68009844 193.96037373 -84.68396306 183.86629868 C-84.6884381 172.24394345 -84.70596326 160.62170617 -84.73496366 148.99938679 C-84.75664091 139.99696014 -84.76667061 130.99456652 -84.76800418 121.99211407 C-84.76904815 116.62444707 -84.77486837 111.25689105 -84.79282379 105.88925171 C-84.8094086 100.83307457 -84.81140988 95.77709056 -84.80268478 90.72089577 C-84.80191987 88.87596936 -84.80618413 87.03103212 -84.81614304 85.18613243 C-84.92368618 64.00320353 -81.47394556 44.78457492 -68.44506836 27.40405273 C-67.98616211 26.76081055 -67.52725586 26.11756836 -67.05444336 25.45483398 C-50.64804706 4.25500262 -25.0661836 -0.06428859 0 0 Z M-51.44506836 38.40405273 C-59.00442807 48.08533797 -64.57790964 60.2897087 -64.56532288 72.71284485 C-64.56669754 73.76307327 -64.5680722 74.8133017 -64.56948853 75.89535522 C-64.56589325 77.03687042 -64.56229797 78.17838562 -64.55859375 79.35449219 C-64.55873978 80.56466507 -64.5588858 81.77483795 -64.55903625 83.02168274 C-64.55845981 86.33122306 -64.55345153 89.64070066 -64.5464623 92.95022988 C-64.5402024 96.41222717 -64.53962287 99.87422534 -64.53843689 103.33622742 C-64.53533135 109.88802288 -64.52712843 116.43980162 -64.5170874 122.99158973 C-64.50590214 130.45226273 -64.50040973 137.91293655 -64.49539196 145.37361586 C-64.48494517 160.7171045 -64.46736078 176.06057646 -64.44506836 191.40405273 C-61.31847702 188.49357424 -59.84510165 185.27018509 -58.17944336 181.39624023 C-57.86920227 180.69084106 -57.55896118 179.98544189 -57.23931885 179.25866699 C-56.56904127 177.73282982 -55.90189859 176.20561252 -55.23754883 174.67718506 C-53.461062 170.59053727 -51.66208817 166.51377981 -49.86694336 162.43530273 C-49.50000366 161.59977875 -49.13306396 160.76425476 -48.75500488 159.90341187 C-44.44461021 150.10004222 -39.99774961 140.35958402 -35.54321289 130.62109375 C-32.63326816 124.25375705 -29.76819146 117.87402756 -27.02148438 111.43408203 C-18.54422455 91.67556241 -4.31165494 71.75626074 13.55493164 59.40405273 C18.1651798 69.85678128 21.85784321 80.60284943 25.55493164 91.40405273 C28.71199715 91.73959014 28.71199715 91.73959014 30.90258789 89.27905273 C31.79848633 88.33030273 32.69438477 87.38155273 33.61743164 86.40405273 C40.32479517 79.45661966 47.50992654 73.76738947 55.55493164 68.40405273 C55.55493164 83.25405273 55.55493164 98.10405273 55.55493164 113.40405273 C65.94993164 116.86905273 65.94993164 116.86905273 76.55493164 120.40405273 C83.2559824 128.22194529 83.2559824 128.22194529 85.19555664 131.44702148 C85.62739258 132.12829102 86.05922852 132.80956055 86.50415039 133.51147461 C87.37227477 134.89969152 88.22391913 136.29834939 89.05883789 137.70678711 C91.60674252 141.65641509 93.70056326 143.76826494 98.15185547 145.41601562 C99.04000946 145.74966629 99.92816345 146.08331696 100.8432312 146.42707825 C101.73809235 146.74947983 102.63295349 147.07188141 103.55493164 147.40405273 C104.74966599 147.84300117 104.74966599 147.84300117 105.96853638 148.29081726 C108.36575765 149.16195433 110.76928658 150.01271006 113.17602539 150.85717773 C114.04260269 151.16226257 114.90917999 151.46734741 115.80201721 151.78167725 C117.61239435 152.41803429 119.42318446 153.05321761 121.234375 153.68725586 C124.01162936 154.66078222 126.78621519 155.64167246 129.56079102 156.62280273 C131.32821134 157.24304425 133.09578403 157.86285181 134.86352539 158.48217773 C135.69162216 158.77586243 136.51971893 159.06954712 137.37290955 159.37213135 C138.14123611 159.63951111 138.90956268 159.90689087 139.70117188 160.18237305 C140.3749437 160.41901672 141.04871552 160.6556604 141.74290466 160.8994751 C143.72311106 161.53817986 143.72311106 161.53817986 146.55493164 161.40405273 C141.57926513 169.40111881 136.38560251 177.22546683 130.92993164 184.90405273 C130.40439697 185.6567041 129.8788623 186.40935547 129.33740234 187.18481445 C120.79303482 199.08082529 111.93793015 202.04802642 97.83227539 204.44702148 C96.35314415 204.70700676 96.35314415 204.70700676 94.84413147 204.97224426 C91.72798245 205.51845793 88.61028383 206.05515583 85.49243164 206.59155273 C83.36536842 206.96266703 81.23841405 207.33440582 79.11157227 207.70678711 C73.92726158 208.6130969 68.74164865 209.51162291 63.55493164 210.40405273 C64.44864548 217.54857042 66.16874092 220.69113585 71.55493164 225.40405273 C82.63095795 233.46674836 97.85913084 232.47381573 110.97045898 233.01708984 C141.01577805 234.34221349 168.49325283 246.19422287 189.35180664 267.92749023 C196.93382929 276.45054406 201.65967825 286.20842154 206.55493164 296.40405273 C207.21822706 297.73906637 207.88281172 299.07346 208.55493164 300.40405273 C217.4588687 296.53449251 221.95403235 287.38956178 226.10961914 279.12670898 C230.26388773 268.42666042 229.84642923 257.58334523 229.82958984 246.28344727 C229.8339424 244.35072636 229.83912736 242.41800718 229.84507751 240.48529053 C229.85842011 235.25795136 229.85905148 230.03068471 229.85651422 224.80333185 C229.8554413 220.4297776 229.86033604 216.05623782 229.86511964 211.68268669 C229.8761984 201.35981712 229.87666139 191.03698395 229.87060547 180.71411133 C229.86456616 170.08611317 229.8768794 159.45824741 229.89817554 148.83027184 C229.91582248 139.68515149 229.92178803 130.54007318 229.9185378 121.39493644 C229.91672976 115.94190548 229.91931313 110.48896898 229.93325233 105.03595352 C229.94587649 99.90586512 229.94384331 94.77598235 229.93084145 89.64589691 C229.92848611 87.77068638 229.93117267 85.89546117 229.93946457 84.02026749 C230.0158401 65.395153 227.23631713 49.58547576 213.84790039 35.59155273 C199.47574901 21.88047135 184.07080037 19.9494211 164.96948242 20.01586914 C162.99882721 20.01179828 161.02817428 20.00645352 159.05752563 19.99993896 C153.73097029 19.98631901 148.40459023 19.99154248 143.07803202 20.00107622 C137.48673965 20.00870259 131.8954617 20.00161877 126.3041687 19.99691772 C116.91458459 19.99146792 107.52507138 19.99863048 98.13549805 20.01293945 C87.3047034 20.02925491 76.4740783 20.02398229 65.64328778 20.00746024 C56.32063228 19.99381189 46.9980276 19.99194234 37.67536533 19.99977624 C32.11780896 20.0044356 26.56033207 20.00512585 21.00278091 19.99516678 C15.77417256 19.98645089 10.54578102 19.99260293 5.31719589 20.00984955 C3.40693266 20.01379023 1.49665094 20.01272224 -0.41360474 20.00606155 C-20.5644565 19.9423199 -37.14300149 22.92848294 -51.44506836 38.40405273 Z M5.55493164 92.40405273 C-1.37133269 102.25428951 -7.08990184 112.13855245 -12.07006836 123.09155273 C-12.75141396 124.56562924 -13.43356389 126.03933419 -14.11645508 127.51269531 C-20.41774399 141.15706939 -26.50293481 154.90045936 -32.57006836 168.65014648 C-35.61907695 175.55995133 -38.71162787 182.44883179 -41.8347168 189.32543945 C-42.98622088 191.86147284 -44.12992525 194.40078117 -45.26635742 196.94360352 C-47.91360343 202.85968591 -50.59560707 208.74870193 -53.4200592 214.58270264 C-61.13232527 230.55821917 -67.19557579 244.24047291 -64.44506836 262.40405273 C-64.35950684 263.09112305 -64.27394531 263.77819336 -64.18579102 264.48608398 C-61.97781122 281.53493375 -52.63847223 293.95927467 -39.44506836 304.40405273 C-39.11506836 304.40405273 -38.78506836 304.40405273 -38.44506836 304.40405273 C-38.38037354 303.80157715 -38.31567871 303.19910156 -38.24902344 302.57836914 C-36.03238955 282.52782159 -32.4199326 265.06099234 -22.44506836 247.40405273 C-21.88948242 246.40760742 -21.33389648 245.41116211 -20.76147461 244.38452148 C-11.40866473 228.70678982 2.79600059 216.2849851 18.55493164 207.40405273 C19.46500977 206.88069336 20.37508789 206.35733398 21.31274414 205.81811523 C40.42142335 195.52882643 62.31867822 191.46570934 83.53540039 188.12670898 C84.21241501 188.01891113 84.88942963 187.91111328 85.58695984 187.80004883 C88.91558195 187.27107915 92.24407109 186.7601189 95.58007812 186.27856445 C103.62619194 185.03790112 109.1226413 183.77500762 114.49243164 177.34155273 C115.17305664 176.37217773 115.85368164 175.40280273 116.55493164 174.40405273 C116.22493164 173.41405273 115.89493164 172.42405273 115.55493164 171.40405273 C113.30926435 170.41295881 111.1798876 169.62250331 108.85180664 168.88061523 C107.46505703 168.41195653 106.07833931 167.94320349 104.69165039 167.47436523 C102.50312139 166.75056889 100.31306582 166.03170894 98.12182617 165.31616211 C96.00663648 164.620836 93.89805268 163.90770307 91.78930664 163.19311523 C91.14016296 162.98772125 90.49101929 162.78232727 89.82220459 162.57070923 C84.57538931 160.78360644 81.09287416 158.14634343 78.36523438 153.28271484 C78.07592041 152.58927979 77.78660645 151.89584473 77.48852539 151.18139648 C72.3639751 140.7896195 66.53419404 135.63547603 55.76246643 131.78987122 C48.8196487 129.45468135 41.77499375 127.45486753 34.70288086 125.55297852 C29.97940357 124.27254977 25.36223625 122.71986066 20.74462891 121.10107422 C18.62029535 120.30294538 18.62029535 120.30294538 16.55493164 120.40405273 C16.18368164 119.26967773 15.81243164 118.13530273 15.42993164 116.96655273 C13.80828121 112.12487873 12.16163359 107.29201769 10.49243164 102.46655273 C10.23510254 101.70866455 9.97777344 100.95077637 9.71264648 100.16992188 C8.26927744 95.91375323 8.26927744 95.91375323 5.55493164 92.40405273 Z M4.66040039 241.29467773 C-10.9847218 258.10523793 -19.70957474 282.51483126 -19.50756836 305.34155273 C-19.50305664 306.02540039 -19.49854492 306.70924805 -19.49389648 307.41381836 C-19.48226396 309.07726877 -19.4643353 310.74067323 -19.44506836 312.40405273 C-8.61982387 312.53658109 2.20544317 312.66708076 13.03074074 312.79520416 C18.0609517 312.85479869 23.09115342 312.91501331 28.12133789 312.97680664 C51.2669002 313.26067057 74.40738242 313.49435753 97.55493164 313.40405273 C97.55493164 312.74405273 97.55493164 312.08405273 97.55493164 311.40405273 C95.641966 309.89679409 95.641966 309.89679409 93.17993164 308.34155273 C67.21041349 290.61341904 53.40378577 265.34814748 46.55493164 235.40405273 C46.35770508 234.54811523 46.16047852 233.69217773 45.95727539 232.81030273 C45.41692863 229.57871434 45.20626745 226.36018575 44.99243164 223.09155273 C44.90864258 221.83729492 44.82485352 220.58303711 44.73852539 219.29077148 C44.67793945 218.3381543 44.61735352 217.38553711 44.55493164 216.40405273 C30.02683407 216.40405273 14.0722026 231.9022813 4.66040039 241.29467773 Z M68.55493164 245.40405273 C70.84655701 263.91893075 88.4965802 281.09357844 102.05102539 292.50561523 C125.7222251 309.9895705 155.67901742 316.0572212 184.55493164 312.40405273 C186.92767941 311.82599444 189.22298205 311.13746435 191.55493164 310.40405273 C189.24322771 294.15964671 176.14328113 279.19740326 163.61352539 269.52905273 C143.94042214 255.86089415 124.03662553 251.75387779 100.31835938 250.79321289 C89.38307619 250.32264328 78.95278653 248.99778138 68.55493164 245.40405273 Z " transform="translate(121.445068359375,34.595947265625)" style="fill: #000000;"/></svg>