<svg xmlns="http://www.w3.org/2000/svg" width="1440" height="900" viewBox="0 0 1440 900">
  <defs><linearGradient id="g" x1="0" y1="0" x2="1" y2="1"><stop stop-color="#05060a"/><stop offset="1" stop-color="#102236"/></linearGradient></defs>
  <rect width="1440" height="900" fill="url(#g)"/>
  <rect x="32" y="32" width="300" height="836" rx="32" fill="#0f172a" stroke="#263244"/>
  <text x="64" y="88" fill="#f8fafc" font-family="-apple-system,BlinkMacSystemFont,Segoe UI,sans-serif" font-size="28" font-weight="800">FeedFerret</text>
  <g fill="#94a3b8" font-family="-apple-system,BlinkMacSystemFont,Segoe UI,sans-serif" font-size="16">
    <text x="64" y="152">New Articles</text><text x="64" y="200">All Articles</text><text x="64" y="248">Starred</text><text x="64" y="296">Read Later</text>
  </g>
  <rect x="360" y="32" width="430" height="836" rx="32" fill="#111827" stroke="#263244"/>
  <text x="400" y="88" fill="#f8fafc" font-family="-apple-system,BlinkMacSystemFont,Segoe UI,sans-serif" font-size="24" font-weight="800">New Articles</text>
  <g fill="#0f172a" stroke="#334155">
    <rect x="392" y="126" width="366" height="118" rx="24"/><rect x="392" y="268" width="366" height="118" rx="24"/><rect x="392" y="410" width="366" height="118" rx="24"/><rect x="392" y="552" width="366" height="118" rx="24"/>
  </g>
  <g fill="#e2e8f0" font-family="-apple-system,BlinkMacSystemFont,Segoe UI,sans-serif" font-size="18" font-weight="700">
    <text x="426" y="172">RSS without the noise</text><text x="426" y="314">Keyword alert matched</text><text x="426" y="456">Scout Studio OPML sync</text><text x="426" y="598">PWA offline polish</text>
  </g>
  <g fill="#64748b" font-family="-apple-system,BlinkMacSystemFont,Segoe UI,sans-serif" font-size="14">
    <text x="426" y="202">4 min read · FeedFerret</text><text x="426" y="344">2 min read · Alerts</text><text x="426" y="486">6 min read · Integrations</text><text x="426" y="628">3 min read · Mobile</text>
  </g>
  <rect x="820" y="32" width="588" height="836" rx="32" fill="#f8fafc"/>
  <text x="878" y="122" fill="#0f172a" font-family="Georgia,serif" font-size="40" font-weight="700">A calmer way to read</text>
  <rect x="878" y="166" width="420" height="14" rx="7" fill="#cbd5e1"/><rect x="878" y="196" width="470" height="14" rx="7" fill="#cbd5e1"/><rect x="878" y="226" width="382" height="14" rx="7" fill="#cbd5e1"/>
  <rect x="878" y="298" width="470" height="280" rx="28" fill="#dbeafe"/>
  <rect x="878" y="632" width="430" height="14" rx="7" fill="#cbd5e1"/><rect x="878" y="662" width="470" height="14" rx="7" fill="#cbd5e1"/><rect x="878" y="692" width="360" height="14" rx="7" fill="#cbd5e1"/>
</svg>
