<svg xmlns="http://www.w3.org/2000/svg" width="390" height="844" viewBox="0 0 390 844">
  <defs><linearGradient id="g" x1="0" y1="0" x2="1" y2="1"><stop stop-color="#05060a"/><stop offset="1" stop-color="#102236"/></linearGradient></defs>
  <rect width="390" height="844" fill="url(#g)"/>
  <rect x="18" y="46" width="354" height="56" rx="24" fill="#111827" stroke="#2b3a4c"/>
  <text x="42" y="81" fill="#f8fafc" font-family="-apple-system,BlinkMacSystemFont,Segoe UI,sans-serif" font-size="20" font-weight="700">FeedFerret</text>
  <circle cx="330" cy="74" r="15" fill="#5BA4CF"/>
  <rect x="18" y="126" width="354" height="126" rx="28" fill="#0f172a" stroke="#253247"/>
  <text x="42" y="166" fill="#f8fafc" font-family="-apple-system,BlinkMacSystemFont,Segoe UI,sans-serif" font-size="18" font-weight="700">New Articles</text>
  <text x="42" y="196" fill="#94a3b8" font-family="-apple-system,BlinkMacSystemFont,Segoe UI,sans-serif" font-size="13">Unread technology, design and news feeds</text>
  <rect x="42" y="214" width="88" height="10" rx="5" fill="#5BA4CF" opacity=".75"/>
  <rect x="18" y="272" width="354" height="92" rx="24" fill="#111827" stroke="#263244"/>
  <rect x="18" y="380" width="354" height="92" rx="24" fill="#111827" stroke="#263244"/>
  <rect x="18" y="488" width="354" height="92" rx="24" fill="#111827" stroke="#263244"/>
  <g fill="#e2e8f0" font-family="-apple-system,BlinkMacSystemFont,Segoe UI,sans-serif" font-size="15" font-weight="650">
    <text x="42" y="310">Designing calm RSS workflows</text>
    <text x="42" y="418">Open web updates worth reading</text>
    <text x="42" y="526">Self-hosted reader automation</text>
  </g>
  <g fill="#64748b" font-family="-apple-system,BlinkMacSystemFont,Segoe UI,sans-serif" font-size="12">
    <text x="42" y="336">3 min read · Product</text>
    <text x="42" y="444">5 min read · News</text>
    <text x="42" y="552">4 min read · Feeds</text>
  </g>
  <rect x="82" y="776" width="226" height="44" rx="22" fill="#0f172a" stroke="#334155"/>
  <circle cx="128" cy="798" r="8" fill="#5BA4CF"/><circle cx="195" cy="798" r="8" fill="#64748b"/><circle cx="262" cy="798" r="8" fill="#64748b"/>
</svg>
